<?xml version="1.0" encoding="utf-8"?>
<svg version="1.1" id="Capa_1" xmlns="http://www.w3.org/2000/svg" xmlns:xlink="http://www.w3.org/1999/xlink" x="0px" y="0px"
	 width="1017.46px" height="492.064px" viewBox="0 0 1017.46 492.064" enable-background="new 0 0 1017.46 492.064"
	 xml:space="preserve">
<g>
	<g>
		<path fill="#FFFFFF" d="M652.728,222.216h142.689L699.382,38.384l0.199-0.375h-0.398H556.841h-0.375H403.312l-54.956,107.343
			l152.454-0.062L395.586,346.723H280.424c-35.379,0-64.545-9.257-87.609-27.746c-23.065-18.515-34.579-42.467-34.579-71.776
			c0-29.685,11.514-54.131,34.579-73.208c23.064-19.121,37.841-26.422,70.957-28.641h48.043l54.756-107.343h-72.595h-30.628
			c-73.471,0-117.038,18.846-163.968,56.537c-46.917,37.704-70.357,86.966-70.357,147.741c0,60.794,23.69,111.268,71.232,151.447
			c47.493,40.229,107.412,60.319,179.77,60.319h59.494h142.603l145.89-279.13L652.728,222.216z"/>
		<polygon fill="#FFFFFF" points="726.534,363.438 773.89,454.054 916.505,454.054 869.175,363.438 		"/>
	</g>
	<polygon fill="#FFFFFF" points="631.399,239.156 575.306,346.499 932.331,346.499 988.438,239.156 	"/>
</g>
</svg>
